PathFileType	4	(X/Y/Z)	RBDS020\RBDS020runT45.trc
DataRate	CameraRate	NumFrames	NumMarkers	Units	OrigDataRate	OrigDataStartFrame	OrigNumFrames
150.000000	150.000000	5	33	mm	150.000000	0	4500
Frame#	Time	L.ASIS			L.Heel.Bottom			L.Heel.Lateral			L.Heel.Top			L.Iliac.Crest			L.MT1			L.MT5			L.PSIS			L.Shank.Bottom.Lateral			L.Shank.Bottom.Medial			L.Shank.Top.Lateral			L.Shank.Top.Medial			L.Thigh.Bottom.Lateral			L.Thigh.Bottom.Medial			L.Thigh.Top.Lateral			L.Thigh.Top.Medial			R.ASIS			R.ASY			R.Heel.Bottom			R.Heel.Lateral			R.Heel.Top			R.Iliac.Crest			R.MT1			R.MT5			R.PSIS			R.Shank.Bottom.Lateral			R.Shank.Bottom.Medial			R.Shank.Top.Lateral			R.Shank.Top.Medial			R.Thigh.Bottom.Lateral			R.Thigh.Bottom.Medial			R.Thigh.Top.Lateral			R.Thigh.Top.Medial			
		X1	Y1	Z1	X2	Y2	Z2	X3	Y3	Z3	X4	Y4	Z4	X5	Y5	Z5	X6	Y6	Z6	X7	Y7	Z7	X8	Y8	Z8	X9	Y9	Z9	X10	Y10	Z10	X11	Y11	Z11	X12	Y12	Z12	X13	Y13	Z13	X14	Y14	Z14	X15	Y15	Z15	X16	Y16	Z16	X17	Y17	Z17	X18	Y18	Z18	X19	Y19	Z19	X20	Y20	Z20	X21	Y21	Z21	X22	Y22	Z22	X23	Y23	Z23	X24	Y24	Z24	X25	Y25	Z25	X26	Y26	Z26	X27	Y27	Z27	X28	Y28	Z28	X29	Y29	Z29	X30	Y30	Z30	X31	Y31	Z31	X32	Y32	Z32	X33	Y33	Z33	

1	0	2304.973557725702	989.4452527030127	874.1666510520926	1984.043419226612	374.1259654168542	932.8876085739261	2014.901999572986	362.1135556755729	890.3372163217095	2030.294445734919	386.4271219040657	933.8698327657579	2243.60799615504	1029.633056249993	834.0840099177675	2092.637547677615	185.7441385166718	966.3182079072909	2069.345799876281	212.5203787344808	860.2469166986676	2142.522614585988	1020.457585953039	934.5935430654596	2144.671604667292	370.1368176290005	870.0887131744298	2127.118726339956	409.5425078217086	905.3483278410832	2210.621080793811	413.861679464705	855.9445035850462	2194.594908938063	451.8792026748816	890.5802028872072	2371.12497360274	671.4415907222611	812.2371845883291	2316.04995821884	633.4919436617944	841.222282970299	2306.583365835489	759.4792929420755	804.823422370251	2253.808147184565	723.5393717969283	832.8014110291984	2297.979201562663	970.7407600919721	1103.882782855199	2041.842350856758	82.53522471850293	1033.112020760636	1849.022239735066	64.15566427874684	1012.862978138098	1874.378184188316	73.99673645684427	1059.531953344684	1864.219715772126	104.3850785955328	1015.64502816333	2251.851890493929	1019.845157403825	1134.178160724019	2057.483348492335	47.86592470405763	987.908318542007	2028.535670413174	39.29242847127561	1095.095650130083	2143.228958104598	1021.482489049561	1032.211161382076	1991.051241800264	189.7110831342144	1082.128151046649	1957.902973237103	220.6684578845	1057.713604732454	2039.030652159817	257.6922009927104	1100.226508118493	2000.74184066439	286.7090171432411	1076.698395661784	2174.048266452663	597.0683987919532	1132.173936602484	2118.499219553266	598.3032985365134	1088.015260886721	2166.144772665085	706.6451541246217	1144.185311565967	2113.510599284919	707.6978387862399	1100.879235059821	
2	0.006666666666666667	2307.093661362021	995.0335369289598	875.1481812809692	2004.396466488255	352.1912095123986	933.6356994629815	2035.855572787346	342.7439763576517	891.0010267938646	2049.318032830853	367.9400180295331	934.6374801999243	2246.202944475748	1036.315330997935	834.1880894058017	2126.70506693547	173.1711205276005	966.2596642545144	2101.332951694991	198.481711582061	860.5409472150699	2145.092418773889	1025.225152815643	934.2690733491709	2164.641117453733	360.2332486031819	871.162552652566	2144.42104383781	398.0558650351241	906.5061117370951	2227.166574018076	408.3166327473776	857.2012213348637	2208.639330975457	444.8195200449655	891.9150122950952	2379.490838775292	681.4363437309136	813.051732978696	2325.138147527381	641.9684704118762	841.2542632625469	2312.731032504704	767.5182351775335	804.5680415378173	2260.579625818233	730.0459815767497	831.6021645392865	2300.196437067664	973.0261881672235	1104.034078214386	2016.972337872674	82.46049024516707	1034.454576766087	1824.132962249763	76.876275715313	1013.516915302069	1849.82809148451	84.31892367000202	1060.19646789171	1841.670197717668	115.8680488738911	1016.792246875994	2256.628318816982	1023.49287298813	1132.83000521555	2029.74010397807	46.84863819661027	988.2428206509634	1999.703273016511	39.51220791024206	1095.369191962451	2145.874513380026	1025.196790202426	1031.936950599759	1967.983312744292	198.7554678514659	1083.65185183204	1935.696326972965	229.2932475271537	1057.973242765127	2015.86281333857	266.8234447526694	1101.523736912006	1978.135979668585	295.463058093618	1076.811271103468	2160.962238263245	604.3882070552962	1131.723111837709	2106.203764560971	608.7470521761104	1087.136613804036	2158.401860496896	713.9534710718634	1144.071900842492	2106.61129243739	717.7924135205729	1100.129968129914	
3	0.01333333333333333	2309.21690500355	1000.453901749101	876.1257887870267	2025.198051926565	330.2355043677723	934.5066833808526	2057.169583059121	323.3704403600203	891.76997934831	2068.724339675141	349.4032123073463	935.5156504739863	2248.781838255134	1042.842389036229	834.3045786081295	2161.005789870041	160.8545711651705	966.1802748938443	2133.517948212204	184.6459703707912	860.8340164148535	2147.709717878151	1029.982110967393	933.914276465065	2184.763196624691	350.2860071757544	872.2560184640313	2161.939198988694	386.486537537128	907.6981427853493	2243.772196139284	402.653297274426	858.449070476375	2222.805555247547	437.6078974797783	893.2647816685443	2387.588505698405	691.1415704996297	813.9117985637398	2333.914013272737	650.2342905551064	841.3510572244537	2318.725583981303	775.3650916065239	804.3759122169055	2267.167213903629	736.4415745654325	830.4982539882898	2302.413339560472	975.3134961485673	1104.18217806359	1992.281084705758	82.61518103718448	1035.825345472791	1799.820612171224	89.99197978327398	1014.244344434282	1825.798063815124	95.02567997516678	1060.933383610658	1819.70157457718	127.6561355610528	1018.011251634656	2261.351710561547	1027.114369459919	1131.51027665416	2002.195673537766	46.11018122249074	988.6379079502996	1971.091051174419	40.03362920951571	1095.679480939099	2148.534352200511	1028.957008463148	1031.62419941128	1945.382534476878	207.8853320576461	1085.216833228781	1913.928708500755	237.991836800677	1058.289316274555	1993.161976267846	276.0516510309527	1102.83579512047	1955.986707107127	304.3006425101946	1076.947407312613	2148.049452612262	611.8869985372694	1131.273266408884	2094.170315046813	619.2480291276814	1086.171514001047	2150.754256159047	721.3924607916466	1143.872359501009	2099.918866117725	727.9003608810715	1099.213158922689	
4	0.02	2311.347163088504	1005.555437325274	877.0997205145226	2046.940897958243	308.2342410509567	935.5957670007185	2079.26067139038	303.9839735915547	892.7257030047344	2088.93686049707	330.7642469314628	936.5870348279759	2251.340684860978	1049.07661313592	834.4450072964128	2195.822904067081	149.064133742225	966.0814110476657	2166.171284672047	171.2290832081576	861.134281767291	2150.411882625291	1034.725761147275	933.4992155600327	2205.242319942574	340.2566853537021	873.3799454501629	2179.928062201956	374.7537676615411	908.9405875668191	2260.547622276019	396.7602555929752	859.6693463864615	2237.250123577463	430.0961375918661	894.6232609447273	2395.16523682564	700.2837964801431	814.8399065468068	2342.085829615196	658.0887736277996	841.5615883773522	2324.416842391001	782.8346309191279	804.291363181307	2273.392524428321	742.6157997287662	829.5717880141228	2304.623913161986	977.6115753888995	1104.326136820437	1967.896627256719	83.22730704912254	1037.242497519406	1776.535155156894	103.8510452514268	1015.133501650249	1802.697625950391	106.4570242821681	1061.825975523175	1798.764852149189	140.0221467204217	1019.379292860402	2265.964178675605	1030.700323656486	1130.244947322819	1974.98835537065	45.9232649664673	989.1452213053126	1942.872322792296	41.13586303681272	1096.064004399469	2151.216489661544	1032.8208330097	1031.234812304431	1923.6293700535	217.1834043258617	1086.860703122561	1892.952340471134	246.847167465754	1058.722124410495	1971.319800807679	285.467194785991	1104.177303723042	1934.673061448548	313.3106324978322	1077.138490200736	2135.482383798733	619.7146670961961	1130.828821638672	2082.639069776811	629.8542832964831	1085.05958093165	2143.302757018198	729.0683946656376	1143.525721061905	2093.618238848974	738.0316477950439	1098.009791544729	
5	0.02666666666666667	2313.480174879281	1010.210775899156	878.0700068375885	2070.015492804901	286.202608231785	936.9661808371802	2102.460707728208	284.6022775934503	893.9219731713724	2110.289800846509	312.0093569362867	937.9029118867483	2253.875725375091	1054.897688798249	834.6205432169276	2231.353190650411	138.0510940261947	965.9739407364856	2199.491443249894	158.4286534379635	861.4529511870475	2153.215201353829	1039.445138074745	933.0066792952528	2226.232160503275	330.1285463644322	874.5339424305824	2198.583078782704	362.8088609724418	910.2356499834946	2277.573522750632	390.5526023163555	860.8377888483764	2252.091409506113	422.1718390347382	895.9728871753101	2401.99617624279	708.6157391655347	815.8446013391901	2349.397328424989	665.3453195868484	841.9226876011978	2329.662971470846	789.7522485998458	804.3455704732786	2279.088925455228	748.4560228364248	828.8905215554538	2306.815266584028	979.9231771645192	1104.465975148409	1943.932495215937	84.51010404677713	1038.716517649408	1754.63072354624	118.7071240485476	1016.25453431889	1780.850809423903	118.8664307932396	1062.939848234571	1779.205944926368	153.1668061749915	1020.955376650207	2270.4079786411	1034.238791411069	1129.059645509313	1948.238959676707	46.54035586376273	989.8021669358709	1915.206599739177	43.06576815216447	1096.548842552163	2153.919776514501	1036.828646235352	1030.74700559281	1903.035309417102	226.7073458723025	1088.607013339936	1873.056530000163	255.9287346489407	1059.32341146199	1950.671513399478	295.1227264615702	1105.55684430881	1914.520338570432	322.5570873885124	1077.418227682351	2123.437925126506	627.9471739230978	1130.392362706688	2071.824887273216	640.5614383885945	1083.767369477355	2136.153775747486	737.027187828817	1142.991024871969	2087.863952816943	748.1572399818898	1096.448030376077	
